<svg xmlns="http://www.w3.org/2000/svg" width="683.72" height="526.39"><path stroke="#B6B6B6" stroke-miterlimit="10" d="M512.435 311.88s-.51 3.186-.74 4.598c-.231 1.411-.839 3.337-4.864 3.165-4.026-.179-14.145.292-28.438-.2-14.3-.506-64.62-3.219-74.867-3.736-10.242-.512-56.316-.888-67.583-2.828-11.265-1.935-67.699-9.795-73.07-10.58-5.379-.775-27.549-4.494-33.284-5.432-5.737-.936-26.64-5.894-34.996-7.935-8.352-2.037-20.437-4.877-25.439-6.178-4.996-1.295-10.438-7.012-10.625-11.769-.186-4.762 1.358-13.971 1.358-13.971l.431-3.501 1.074-6.577s1.358-3.742 7.287-3.71c11.396.07 31.565 1.194 36.244 1.353 7.487.258 14.957.031 14.957.031s21.824-10.141 32.519-11.201c10.692-1.047 32.806-.528 48.715 3.715 15.908 4.237 67.659 20.694 77.924 23.431 10.265 2.744 41.806 11.748 53.627 15.026 11.819 3.284 67.694 19.837 73.514 21.463 5.812 1.623 8.095 4.221 8.071 6.146-.026 1.923-.536 3.289-.536 3.289"/><path stroke="#B6B6B6" stroke-miterlimit="10" d="M160.682 246.436s-1.526-1.931-2.742-2.579c1.703-1.26 2.577-3.617 3.567-9.345.977-5.725 1.526-26.587.444-27.64-1.083-1.042-3.102-1.082-4.042 2.33-.95 3.422-6.511 22.146-6.897 25.949-.536 5.374.959 7.446 1.726 8.055-1.778.581-4.667 1.988-7.938 4.3-3.209 2.267-.37 5.87.731 7.021 2.156 2.254 3.186 3.359 5.833 5.108-2.308 2.271-3.587 5.844-4.084 12.599-.452 6.08-1.823 22.406-1.872 23.729-.137 3.354 2.516 3.008 3.323.962.848-2.165 7.701-26.671 7.727-30.412.031-3.816-.958-5.717-.958-5.717s2.828-.079 3.204-2.231c.195-1.133 1.721-8.215 1.978-12.129z"/><path stroke="#B6B6B6" stroke-miterlimit="10" d="M332.387 293.861c-5.01-4.192-18.809-10.694-31.105-14.631-12.289-3.936-23.938-6.509-31.121-6.816-7.19-.308-21.316.476-21.822 3.577-.505 3.106 3.183 4.669 16.443 6.936 17.156 2.922 41.582 7.238 48.164 8.246l19.394 2.97"/><path stroke="#B6B6B6" stroke-miterlimit="10" d="M433.176 275.729l19.378 1.558s57.249-48.563 59.975-48.119c2.725.443 14.32 1.567 17.582 2.871 3.262 1.305 8.166 4.328 9.348 5.389 1.18 1.061 3.217 1.588-3.946 14.125-7.158 12.536-19.221 36.745-20.795 39.901-1.576 3.154-4.143 7.322-4.143 7.322"/><path stroke="#B6B6B6" stroke-miterlimit="10" d="M525.774 312.404s-7.441-3.977-19.757-7.278c-12.244-3.285-26.579-3.764-26.787-.223-.199 3.537 14.112 5.121 24.644 6.253 10.526 1.14 21.9 1.248 21.9 1.248z"/><path stroke="#B6B6B6" stroke-miterlimit="10" d="M513.375 229.288s2.353-3.746 5.552-3.228c3.196.525 8.504.515 8.606 5.216"/><path stroke="#B6B6B6" stroke-miterlimit="10" d="M259.66 237.458l-16.252 16.747s-3.475 2.944-7.052 1.208c-3.577-1.749-14.307-7.554-14.151-8.494.15-.94.746-2.193 9.017-5.57 8.273-3.381 14.153-5.125 18.729-5.92 4.569-.799 12.073-.412 9.709 2.029z"/><path stroke="#B6B6B6" stroke-miterlimit="10" d="M265.527 239.32c4.712.696 20.32 3.223 22.369 3.654 2.057.434 3.41 1.623 3.086 4.17-.325 2.553-2.348 14.388-2.504 15.323-.15.942-.688 2.464-3.402 1.941-2.713-.525-32.148-5.264-34.409-5.619-2.259-.352-4.646-2.286-2.582-4.271 2.059-1.975 11.104-11.888 13.016-13.503 1.9-1.623 2.819-1.93 4.426-1.695z"/><path stroke="#B6B6B6" stroke-miterlimit="10" d="M294.718 248.529c-.247 1.504-2.195 13.442-2.409 14.755-.218 1.318-.572 2.291 3.297 2.841 3.866.55 19.643 3.226 20.76 2.92 1.11-.298 2.979-3.461 3.885-4.864.9-1.399 2.996-3.853 1.544-4.758-2.947-1.833-19.438-11.583-21.089-12.718-1.647-1.136-5.219-2.875-5.988 1.824z"/><polyline stroke="#B6B6B6" stroke-miterlimit="10" points="540.052,240.902 524.447,238.354 495.704,293.995"/><polyline stroke="#B6B6B6" stroke-miterlimit="10" points="540.464,240.967 509.03,235.837 505.508,239.379 460.84,284.188"/><line stroke="#B6B6B6" stroke-miterlimit="10" x1="538.97" y1="244.992" x2="505.508" y2="239.379"/><line stroke="#B6B6B6" stroke-miterlimit="10" x1="536.652" y1="249.514" x2="501.18" y2="243.723"/><line stroke="#B6B6B6" stroke-miterlimit="10" x1="534.132" y1="254.005" x2="496.986" y2="247.938"/><line stroke="#B6B6B6" stroke-miterlimit="10" x1="531.665" y1="258.51" x2="492.788" y2="252.165"/><line stroke="#B6B6B6" stroke-miterlimit="10" x1="529.259" y1="263.019" x2="488.6" y2="256.38"/><line stroke="#B6B6B6" stroke-miterlimit="10" x1="526.885" y1="267.536" x2="484.397" y2="260.6"/><line stroke="#B6B6B6" stroke-miterlimit="10" x1="524.545" y1="272.06" x2="480.194" y2="264.815"/><line stroke="#B6B6B6" stroke-miterlimit="10" x1="522.221" y1="276.581" x2="476.001" y2="269.031"/><line stroke="#B6B6B6" stroke-miterlimit="10" x1="519.922" y1="281.116" x2="471.913" y2="273.274"/><line stroke="#B6B6B6" stroke-miterlimit="10" x1="517.251" y1="285.581" x2="467.608" y2="277.478"/><line stroke="#B6B6B6" stroke-miterlimit="10" x1="515.194" y1="290.152" x2="463.409" y2="281.698"/><path stroke="#B6B6B6" stroke-miterlimit="10" d="M152.738 243.205s3.498 1.242 5.202.651"/><path stroke="#B6B6B6" stroke-miterlimit="10" d="M151.363 259.634s4.57.239 4.233 1.418"/><line stroke="#B6B6B6" stroke-miterlimit="10" x1="159.156" y1="244.505" x2="156.564" y2="260.366"/><path stroke="#B6B6B6" stroke-miterlimit="10" d="M172.722 243.279c-1.983 2.188-2.18 6.534-2.774 10.167-.594 3.63-2.742 23.362-2.947 24.87-.199 1.51-.191 2.787 1.101 4.097"/><path stroke="#B6B6B6" stroke-miterlimit="10" d="M217.899 244.655c-1.407 2.747-2.188 5.97-3.914 14.179-1.73 8.211-5.557 28.842-5.924 30.945-.368 2.107 1.029 2.436 1.029 2.436"/><path stroke="#B6B6B6" stroke-miterlimit="10" d="M151.571 241.482s3.785 1.956 6.568 1.158"/><path stroke="#B6B6B6" stroke-miterlimit="10" d="M149.996 260.947s.853-.239 2.871.089c2.02.329 3.436.94 3.436.94"/><line stroke="#B6B6B6" stroke-miterlimit="10" x1="358.632" y1="254.455" x2="348.909" y2="314.01"/><line stroke="#B6B6B6" stroke-miterlimit="10" x1="288.408" y1="275.019" x2="294.839" y2="235.639"/><line stroke="#B6B6B6" stroke-miterlimit="10" x1="510.574" y1="298.775" x2="323.716" y2="260.17"/><path stroke="#B6B6B6" stroke-miterlimit="10" d="M293.698 247.668c-.271 1.656-2.416 14.792-2.649 16.229-.236 1.452.266 2.717 4.525 3.319 4.253.605 20.405 3.304 21.626 2.974 1.222-.331 3.28-3.815 4.273-5.355.99-1.531 3.103-4.628 1.824-5.818-2.802-2.597-20.633-12.164-22.447-13.42-1.809-1.252-6.309-3.098-7.152 2.071z"/><path stroke="#B6B6B6" stroke-miterlimit="10" d="M266.814 238.349c5.174.875 19.801 3.2 22.06 3.67 2.259.472 3.771 2.242 3.422 5.051-.352 2.81-2.558 15.412-2.726 16.442-.174 1.039-1.004 2.56-2.916 2.25-2.994-.492-34.162-5.211-36.644-5.614-4.229-.688-4.993-4.203-2.719-6.382 2.267-2.174 11.489-12.289 13.584-14.068 2.095-1.784 3.035-1.845 5.939-1.349z"/><path stroke="#B6B6B6" stroke-miterlimit="10" d="M260.543 238.074s-11.633 12.173-16.442 16.887c-1.442 1.411-4.244 3.465-8.179 1.548-3.937-1.92-14.547-7.73-14.986-9.329-.281-1.007.234-2.422 9.337-6.142 9.101-3.718 15.604-5.462 20.596-6.51 6.038-1.274 12.941.248 9.674 3.546z"/><path stroke="#B6B6B6" stroke-miterlimit="10" d="M330.398 292.389c114.103 9.608 148.832 12.515 148.832 12.515"/><line stroke="#B6B6B6" stroke-miterlimit="10" x1="286.508" y1="286.668" x2="283.402" y2="305.698"/><polyline stroke="#B6B6B6" stroke-miterlimit="10" points="323.716,260.17 319.534,285.754 319.468,286.166 319.534,285.754"/><path stroke="#B6B6B6" stroke-miterlimit="10" d="M314.164 318.669"/><polyline stroke="#B6B6B6" stroke-miterlimit="10" points="318.5,292.087 315.611,309.798 315.611,309.798"/><path stroke="#B6B6B6" stroke-miterlimit="10" d="M323.716 260.17"/><path stroke="#B6B6B6" stroke-miterlimit="10" d="M234.909 297.781"/><path stroke="#B6B6B6" stroke-miterlimit="10" d="M259.318 233.579c2.018.329 4.236 2.319 2.632 3.976-14.214 14.675-17.046 17.924-19.278 19.704-2.668 2.117-2.558 2.622-2.558 2.622l-6.482 37.647"/><line stroke="#B6B6B6" stroke-miterlimit="10" x1="214.646" y1="255.723" x2="321.607" y2="273.062"/><path stroke="#B6B6B6" stroke-miterlimit="10" d="M284.032 312.754"/></svg>