<svg xmlns="http://www.w3.org/2000/svg" width="683.72" height="526.39"><polyline fill="#fff" stroke="#B6B6B6" stroke-miterlimit="10" points="373.632,259.424 351.901,270.9 442.635,336.549 464.336,324.877 374.017,259.568"/><polygon fill="#fff" stroke="#B6B6B6" stroke-miterlimit="10" points="474.793,332.42 453.889,344.572 565.959,425.877 586.25,412.252 474.793,332.42"/><path fill="#fff" stroke="#B6B6B6" stroke-miterlimit="10" d="M527.746 55.598l.391-.963-13.613 5.046-28.087 71.124 14.266-6.984s-.854.721.081-1.788c.935-2.511 26.962-66.435 26.962-66.435z"/><polygon fill="#fff" stroke="#B6B6B6" stroke-miterlimit="10" points="244.005,144.444 222.257,150.226 259.897,188.615 280.858,181.886 244.005,144.444"/><polygon fill="#fff" stroke="#B6B6B6" stroke-miterlimit="10" points="239.148,139.51 218.027,145.779 141.281,68.41 163.474,62.625 239.148,139.51"/><polygon fill="#fff" stroke="#B6B6B6" stroke-miterlimit="10" points="470.145,102.328 461.969,113.932 415.556,83.805 430.947,77.483 470.145,102.328"/><polygon fill="#fff" stroke="#B6B6B6" stroke-miterlimit="10" points="514.609,130.811 501.713,137.422 585.464,190.242 599.479,182.517 514.609,130.811"/><path stroke="#B6B6B6" stroke-width="3" stroke-linecap="round" stroke-linejoin="round" stroke-miterlimit="10" d="M248.272 318.262h7.502s45.954 12.66 51.346 15.942 188.268 157.555 196.474 161.071c8.206 3.518 20.632 5.393 30.01 0 9.379-5.394 26.26-15.006 40.562-29.541 14.302-14.536 25.79-33.996 23.211-41.499-2.579-7.502-14.771-14.302-23.446-20.397-8.674-6.096-204.21-147.239-204.21-147.239s.327-4.425 8.439-9.847c28.996-19.38 113.946-94.955 113.946-94.955l80.184 51.111s7.971 5.861 15.709 1.172c9.733-5.901 20.396-10.785 20.396-10.785s4.455-2.578 0-5.627c-4.454-3.048-107.613-65.648-107.613-65.648l27.665-68.148s2.499-7.502-.783-7.502l-7.657 1.875s1.016 2.578-4.534 3.907c-5.632 1.348-6.353-2.032-6.353-2.032s-3.806.781-5.525 2.97c-1.721 2.188-33.449 49.235-33.449 49.235l-44.391-28.135s-2.97-1.719-8.128.782c-5.158 2.5-18.756 7.658-18.756 7.658s-6.254 4.377-.158 9.223c6.098 4.845 54.552 34.855 54.552 34.855l-9.223 8.596s-65.024 17.975-80.342 22.352c-15.317 4.376-82.841 24.226-82.841 24.226l-117.385-119.257s-2.5-4.688-11.41-5.47c0 0-22.821-2.501-45.329 2.814-22.507 5.313-37.044 9.065-36.731 15.473.312 6.409 4.376 11.098 9.847 17.663 5.47 6.564 116.915 135.828 116.915 135.828s2.5 4.845-1.562 7.658c-4.064 2.813-70.806 41.733-76.12 44.86-5.314 3.126-7.971 4.219-9.847 6.877-1.875 2.657-2.032 4.377-2.032 4.377s-26.572-44.078-30.323-44.704c-3.751-.626-6.095 1.25-4.845 5.001 1.25 3.752 15.943 36.576 20.319 43.297 4.376 6.721 5.158 9.221 7.971 10.629 2.813 1.406 4.221 1.406 4.221 1.406s-8.909 6.722-11.879 12.191c-2.97 5.471-3.909 7.971-2.658 10.316 1.25 2.345 6.721 5.002 13.286 4.533 6.565-.47 12.036-1.407 12.036-1.407s-.111 6.874 1.606 11.254c1.155 2.946 18.87 32.042 22.622 37.199 3.751 5.158 7.037 11.058 10.17 9.43 3.479-1.809-.01-7.554-6.888-19.745-6.878-12.192-11.563-26.337-16.799-32.511-2.645-3.12-6.021-7.19-6.021-7.19s9.464 9.3 18.956 13.716c9.695 4.511 29.03 1.134 46.38-4.337 17.348-5.469 62.913-23.521 62.913-23.521z"/><path stroke="#B6B6B6" stroke-width="3" stroke-linecap="round" stroke-linejoin="round" stroke-miterlimit="10" d="M224.748 206.529c-3.032 2.045-6.253 5.29-9.887 9.042-3.634 3.751-17.584 20.631-18.347 22.272-.761 1.641-1.552 4.965-1.758 9.261-.164 3.429.994 7.82 2.029 8.992 1.036 1.173 2.406 1.598 4.281-.278s12.114-14.223 17.038-19.147c4.923-4.923 10.238-10.55 13.521-13.521 3.282-2.97 10.238-8.44 10.238-8.44s3.441-2.883.628-4.759-13.856-6.046-17.743-3.422zm8.752 23.284s-11.781 10.55-16.294 15.884c-4.515 5.334-11.313 13.54-12.017 14.36-.703.821-2.227 2.287-.703 3.868 1.524 1.583 11.488 8.5 17.115 11.43 5.627 2.932 17.526 6.917 25.497 6.624 7.972-.294 8.616-.821 9.378-1.817.762-.997 7.15-28.252 8.088-31.945.938-3.692 2.52-9.261.704-12.866-1.817-3.604-6.39-10.346-9.144-13.745-2.755-3.399-4.279-4.747-6.858-4.455-2.579.294-4.103 1.7-7.737 5.041-3.633 3.342-6.03 5.809-8.029 7.621zm46.95 9.671c-1.638.71-3.749 2.798-4.512 6.257-.762 3.458-4.914 21.577-5.276 23.754-.411 2.462 1.7 6.153 6.682 3.517 9.722-5.146 28.427-15.768 32.354-17.702 3.927-1.935 7.364-2.695 7.209-6.331l-.645-15.123c-.148-2.801.235-9.143-7.445-6.154-5.871 2.287-23.755 9.783-28.367 11.782zm43.192-17.611c5.17-1.339 18.765-3.568 20.249-3.803 1.484-.235 4.923-.625 4.923 2.579v10.512c0 1.914.08 3.751-2.93 5.236-3.01 1.483-16.021 8.323-17.976 9.378-1.953 1.055-4.963 1.758-4.844-2.657.04-1.485-.822-11.605-1.408-14.967-.586-3.359-.562-5.618 1.986-6.278zm146.503-119.545l-16.881 24.384-9.223 8.596s-20.239 12.661-18.91 14.068c1.326 1.407 34.541-7.582 47.905-12.973 13.364-5.392 27.704-11.617 27.666-12.582-.04-1.007.079-1.799.079-1.799s2.891 8.441 2.266 9.613c-.625 1.172-12.977 7.956-16.881 11.176-.908.748-2.658 2.891-.392 4.689 2.268 1.796 6.331 4.298 6.331 4.298m-367.298 170.283s3.15-.499 2.212-3.624c-.938-3.126-4.571-8.574-7.15-11.701-.769-.932-3.79-.062-3.731.408m-11.59 1.172s2.464.195 3.911-1.094c1.072-.956.78-3.165.78-3.165m6.094 29.893s.041-1.724 2.113-2.196c1.985-.455 2.576.633 2.576.633s4.302-2.422 5.161-6.799c.76-3.865-4.095-11.641-7.662-16.309-.469-.614-.917-1.175-1.326-1.668-3.517-4.219-6.957-3.554-6.957-3.554s-.193-4.456-.702-6.331c-.676-2.495-1.524-5.359-1.524-5.359m173.846-110.501s-38.136 11.878-44.544 15.318c-6.409 3.438-19.07 11.722-27.979 22.977-8.91 11.254-11.82 15.171-11.82 15.171m59.259 82.91s-3.987-1.486-2.423-4.611c1.563-3.127 9.38-9.848 25.478-18.757 16.099-8.909 68.774-33.449 76.12-36.731 7.346-3.281 10.473-5.159 11.411-4.533.937.626 3.36 2.969 3.36 2.969" fill="none"/><polyline stroke="#B6B6B6" stroke-width="5.312" stroke-miterlimit="10" points="528.137,54.635 514.523,59.681 486.437,130.804" fill="none"/><path stroke="#B6B6B6" stroke-miterlimit="10" d="M148.867 75.941l22.193-5.783m-15.316 12.661l22.193-5.784m-15.541 12.661l22.11-5.703m-15.184 12.685l21.976-5.784m-15.224 12.591l22.015-5.692m-15.227 12.536l22.015-5.637m-15.192 12.514l21.982-5.615m-15.004 12.649l21.802-5.746m-15.012 12.593l21.801-5.694m-14.855 12.697l21.811-5.835m-3.572 24.328l22.193-5.783m-15.589 13.046l22.192-5.783m-15.821 12.503l22.194-5.783m-14.733 12.777l21.647-5.972m-15.125 12.678l21.29-6.415m-43.458 50.974s-12.372 11.079-17.11 16.678c-4.739 5.601-11.877 14.218-12.618 15.08-.738.861-2.338 2.399-.738 4.062 1.6 1.662 12.063 8.924 17.971 12.001 5.908 3.076 18.403 7.263 26.772 6.954 8.37-.308 9.048-.861 9.847-1.907.8-1.047 7.509-29.664 8.494-33.542.985-3.878 2.646-9.725.738-13.51s-6.708-10.863-9.601-14.433c-2.892-3.569-4.492-4.984-7.2-4.677-2.708.308-4.308 1.785-8.125 5.292-3.815 3.509-6.333 6.101-8.43 8.002zm-8.401-23.539c-3.182 2.147-6.564 5.554-10.382 9.492-3.815 3.939-18.462 21.664-19.263 23.387-.8 1.724-1.631 5.215-1.846 9.724-.172 3.6 1.044 8.211 2.13 9.442 1.087 1.231 2.526 1.678 4.497-.292 1.969-1.968 12.718-14.934 17.888-20.104 5.171-5.169 10.75-11.079 14.196-14.196 3.447-3.118 10.75-8.862 10.75-8.862s3.615-3.027.661-4.997c-2.954-1.97-14.55-6.349-18.631-3.594zm54.491 33.433c-1.751.759-4.012 2.995-4.827 6.695-.816 3.701-4.802 21.274-5.279 23.586-.772 3.746 1.836 8.936 7.932 5.594 10.321-5.657 29.268-16.872 33.471-18.942 4.202-2.07 7.372-2.782 7.207-6.672-.691-16.18-.563-12.565-.762-16.294-.16-2.998-.879-8.909-7.387-6.573-6.346 2.278-25.42 10.466-30.355 12.606zm43.323-17.459c5.533-1.47 20.078-3.92 21.666-4.177 1.589-.257 5.27-.688 5.27 2.834v11.547c0 2.104.084 4.122-3.137 5.754-3.22 1.63-15.675 8.34-17.766 9.5-2.09 1.16-6.777 2.734-6.65-2.116.042-1.632-.88-12.751-1.507-16.443-.627-3.692-.601-6.173 2.124-6.899zm38.142 56.212l22.047-11.265m-12.919 17.57l22.048-11.266m8.91 6.643l-22.049 11.266s-33.361 16.742-47.659 24.21c-3.228 1.688-5.484 2.901-6.165 3.344-3.697 2.397-13.857 8.494-15.419 11.464-1.563 2.969-2.276 3.289-1.686 5.475m80.543-37.761l22.047-11.266m-12.909 18.135l22.048-11.267m-12.748 17.831l22.049-11.266m-13.392 17.8l22.05-11.266m-12.904 17.753l22.049-11.267m-12.906 17.909l22.049-11.266m7.238 32.331l22.048-11.267m-11.736 18.845l22.048-11.266m-11.81 18.689l22.047-11.267m-11.023 18.928l20.748-12.104m-10.895 19.537l20.748-12.103m-10.375 19.371l20.199-12.619m-10.098 20.526l20.2-12.618m-9.43 19.987l20.2-12.619m-10.1 19.974l20.2-12.618m-9.733 19.989l19.42-12.619m14.676 9.626s-77.667 52.159-83.06 57.318c-5.394 5.156-8.44 10.081-8.909 12.659-.469 2.579 0 6.195 0 6.195m-29.358-163.391s-68.645 36.083-76.146 40.84-14.479 9.172-17.058 12.142-3.517 5.158-3.022 7.229m145.859 75.92l-188.383-149.548m-256.525-229.266s-.434-3.559 5.663-5.855c6.096-2.297 36.107-9.016 46.735-11.518 10.628-2.501 34.913-8.047 34.913-8.047m-11.431 114.211s.119-4.462 9.81-7.953c9.691-3.493 29.067-9.46 43.726-13.967 15.337-4.714 38.16-10.641 38.16-10.641m-147.283-66.072l121.587 136.052m-40.558 35.924c7.971-.856 13.754 1.489 16.568 6.334s7.502 12.605 15.317 18.26c7.815 5.654 12.817 9.25 18.132 20.504 5.314 11.254 2.25 30.327 2.062 33.373m-112.124-42.771s5.807-2.476 8.777.648c2.969 3.123 28.291 26.887 31.729 33.996 3.439 7.109 4.221 17.268 3.908 22.27l.062 7.105m-4.555-30.419l68.798-27.172m-102.368-7.143l57.606-35.142m348.866-193.125l-13.613 5.046-10.457 3.879-40.594 76.26m22.964-9.016l28.087-71.124m-13.813 10.182l25.377-10.182m-28.4 15.869l26.333-10.776m-29.494 16.706l27.231-11.134m-29.941 16.475l27.081-11.125m-30.121 16.585l28.857-11.775m-31.65 17.021l29.597-11.966m-32.611 17.496l30.613-12.574m-33.485 18.104l31.623-12.901m-34.39 18.098l32.065-12.987m-34.93 18.368l33.231-13.437m-36.093 18.819l33.688-13.639m-36.554 19.017l34.606-14.223m-37.479 19.619l35.695-14.862m-80.963-33.638l15.63-6.315m-10.54 9.977l15.63-6.316m-10.37 9.475l15.629-6.316m-10.349 9.473l15.63-6.315m-11.363 9.443l15.629-6.315m-10.174 9.931l15.631-6.315m-9.724 9.473l15.63-6.316m-10.609 10.063l10.609-4.287m-365.493 201.512s3.307-.554 4.638-1.461c1.759-1.195 2.59-2.515 2.59-2.515m6.145 32.181s.613-1.438 2.283-2.141c1.671-.705 3.191-.345 3.191-.345m3.954-6.438c.471-1.469-3.079-7.168-6.137-12.014-3.947-6.25-6.131-9.297-9.382-10.51m119.212-102.44s10.2-3.535 22.365 8.486c8.991 8.887 18.577 16.896 19.761 25.961 1.182 9.064-.993 10.381-2.952 20.664-1.961 10.283-6.962 25.093-6.65 28.786.312 3.692.468 11.266.468 11.266l5.27 4.984m-38.61 1.885l126.337-66.334m-77.59-54.552s6.005-1.806 9.757 1.13 22.941 18.305 28.037 29.018c1.286 2.701 3.347 7.093 3.928 11.489.985 7.469 1.024 7.141 1.208 31.114m-7.87-83.127s5.599-1.267 8.436.53c2.837 1.798 15.811 10.864 21.515 18.366 5.705 7.502 9.846 15.317 10.707 18.912.211.888.477 3.95.755 8.062.849 12.554 1.823 34.881 1.823 34.881l2.023 3.629m-3.846-38.51s28.083-14.548 48.638-27.365c20.554-12.817 73.54-47.36 73.54-47.36l14.472-9.643m-2.436-3.457s1.875 1.612 2.501 3.644c.625 2.031.773 5.112.773 5.112m25.407 7.093l12.883-6.923m-20.203 2.513l12.882-6.923m.879 15.554l13.467-7.361m-5.779 11.746l12.883-6.922m-6.05 11.244l13.38-7.291m-6.299 11.491l13.379-7.291m-6.69 11.685l13.38-7.291m-6.098 11.85l13.379-7.291m-6.317 11.606l13.379-7.291m-6.424 11.589l13.379-7.291m-6.689 11.739l13.802-7.636m-95.961-115.242s-.373 2.046 2.322 1.855c2.696-.192 4.928-1.213 4.928-1.213m-152.367 97.573s5.985-.503 15.324 8.72c7.046 6.956 14.731 14.457 16.373 23.629 1.328 7.423 2.148 23.613 2.267 29.709.117 6.096.373 12.544-.705 15.475-1.251 3.399-4.326 6.395-4.326 6.395m-25.449 8.451s36.34-24.187 47.047-32.393c10.707-8.207 47.829-36.576 57.91-45.485 10.082-8.909 29.071-25.692 29.071-25.692" fill="none"/></svg>