<svg xmlns="http://www.w3.org/2000/svg" width="70.866" height="70.866"><g clip-rule="evenodd" stroke="#ED1C24" stroke-miterlimit="10" fill="none"><path stroke-width="1.8" d="M16.495 23.196l-1.763 24.689s15.71-1.783 16.479-1.665 2.341.952 3.919 1.064l3.649-1.182 16.749 1.687-1.829-24.797s-2.693.026-3.161-.351-.832-1.267-1.625-1.939-7.694-1.659-9.999-.714-3.116 1.171-3.765 2.501.668-3.029-7.134-2.715-5.852.727-6.111.824-1.459 1.125-2.221 2.271c-.578.869-2.171.069-3.188.327z"/><path d="M19.564 23.833l-.93.78s-1.477 14.298-.48 20.672c0 0 13.073-1.788 14.239-1.607s1.218.228 2.265.676c.131.056.258.091.38.109.856.132 1.479-.545 1.536-.576.065-.035 1.254-1.065 1.759-.702s13.964 1.099 14.329 2.008-.731-19.822-1.041-20.488-3.32-2.881-3.323-3.258-6.444-1.892-7.981-.828c0 0-4.105.354-5.187 3.488 0 0-1.828-3.214-2.618-2.985s-.414-1.271-10.051 0c-.001.001-.295-.343-2.897 2.711z"/><path stroke-width="1.2" d="M35.129 43.915s.162-3.013-3.623-3.961-9.104.118-10.642.414c0 0 .59-8.691 1.063-17.914 0 0 .56-1.28 1.232-1.419s6.142-1.24 8.363-.146 2.091.824 2.842 2c0 0 .394.606.764 1.93v19.096z"/><path stroke-width="1.2" d="M35.149 24.522s.668-1.941 2.162-2.931 4.872-1.711 9.918-.591c0 0 .529.56.632.816s.969 17.25 1.205 18.551c0 0-2.134-1.52-10.323-1.062 0 0-3.548.96-3.471 4.609"/><line stroke-width=".8" x1="20.865" y1="40.367" x2="18.154" y2="45.286"/><line stroke-width=".8" x1="49.066" y1="40.367" x2="52.73" y2="44.806"/></g></svg>