<svg xmlns="http://www.w3.org/2000/svg" width="70.866" height="70.866"><path fill-rule="evenodd" clip-rule="evenodd" fill="#ED1C24" stroke="#ED1C24" stroke-width=".9" stroke-miterlimit="10" d="M50.509 48.405c-3.104-.114-5.693-.678-8.254-1.398-.268-.075-.381-.027-.416.239l-.073.356c-.106.466-.11.463-.565.328-.195-.058-.259-.127-.191-.35.081-.271.278-.599.155-.821s-.508-.208-.779-.296c-1.793-.583-3.541-1.285-5.267-2.045-.141-.061-.255-.078-.402-.01-1.743.808-3.543 1.467-5.379 2.029-.251.077-.297.158-.234.415.466 1.933 1.013 3.838 1.848 5.646.571 1.236 1.35 2.312 2.458 3.147.912.687 1.839.744 2.844.292.644-.289 1.172-.724 1.582-1.294.146-.202.26-.31.473-.092l.202.112c.113.05.155.104.065.224-.969 1.304-2.2 2.136-3.887 2.07-.788-.03-1.409-.492-2.004-.965-1.424-1.134-2.242-2.674-2.878-4.331-.584-1.52-1.054-3.076-1.405-4.667-.047-.209-.136-.246-.336-.186-1.707.506-3.44.895-5.219 1.026-1.486.109-2.975.269-4.468.097-1.065-.123-2.044-.471-2.898-1.15-1.039-.826-1.365-1.884-1.159-3.171.324-2.012 1.443-3.575 2.758-5.039.984-1.095 2.043-2.114 3.154-3.078.164-.142.173-.232-.005-.35l-.175-.155c-.365-.327-.351-.314-.021-.67.164-.178.249-.128.392.01.546.525.544.515 1.129.051 1.778-1.41 3.618-2.733 5.552-3.923.215-.133.335-.277.35-.543.093-1.634.296-3.255.6-4.862.038-.198-.029-.267-.218-.316-2.218-.575-4.458-1.03-6.75-1.163-1.46-.085-2.883.079-4.209.778-1.146.605-1.529 1.325-1.426 2.846.021.31.388 1.022.388 1.022s-.649.634-.715.461c-.29-.76-.075-.071-.095-.125-.402-1.107-.502-2.221-.084-3.35.186-.502.519-.877.948-1.174 1.321-.912 2.812-1.233 4.391-1.239 1.801-.006 3.564.299 5.321.648.805.16 1.604.342 2.393.569.19.054.25.022.297-.188.473-2.118 1.205-4.144 2.182-6.083.625-1.241 1.449-2.316 2.588-3.128 1.376-.982 2.964-.947 4.274.131 1.233 1.016 2.074 2.336 2.748 3.766.739 1.569 1.251 3.218 1.666 4.897.062.249.15.233.335.175l1.181-.347c.158-.048.259-.052.254.155l.039.196c.063.234-.005.362-.261.416-.358.075-.703.201-1.06.284-.216.05-.249.157-.202.354.231.972.409 1.954.561 2.94.132.846.247 1.694.304 2.548.015.217.075.36.28.478 2.069 1.174 4.076 2.445 5.965 3.895.118.09.207.13.342.009 1.688-1.509 3.32-3.071 4.549-4.996.479-.75.857-1.551 1.118-2.407.501-1.644-.146-2.965-1.757-3.573-.668-.252-1.356-.412-2.062-.509-.201-.027-.409-.53-.292-.701.047-.071.118-.051.181-.043 1.222.147 2.418.396 3.465 1.081 1.212.793 1.708 2.278 1.292 3.739-.483 1.699-1.399 3.156-2.522 4.496-.997 1.189-2.101 2.273-3.271 3.289-.229.198-.208.273.009.456 1.824 1.529 3.482 3.22 4.869 5.159.771 1.078 1.301 2.271 1.495 3.592.24 1.625-.609 3.047-2.165 3.641-1.396.532-2.848.687-3.893.675zm-.6-.79c1.883 0 3.107-.195 4.134-.594 1.266-.492 1.935-1.534 1.782-2.796-.127-1.057-.515-2.03-1.094-2.907-1.424-2.155-3.243-3.951-5.211-5.605-.153-.128-.232-.049-.336.038-1.896 1.604-3.918 3.035-6.043 4.32-.144.087-.229.177-.237.361-.089 1.858-.383 3.69-.765 5.507-.05.238.033.288.211.332.861.212 1.718.441 2.581.637 1.771.402 3.558.691 4.978.707zm-21.988-11.624c-.011 1.17.01 2.339.08 3.506.01.179-.014.369.202.489 2.132 1.186 4.283 2.335 6.468 3.417.177.088.32.08.495-.008.634-.32 1.276-.622 1.914-.935 1.65-.81 3.312-1.604 4.891-2.55.143-.085.269-.151.274-.367.084-2.615.219-5.228.069-7.845-.03-.539-.119-.971-.7-1.144-.104-.031-.195-.106-.292-.16-2.009-1.11-4.039-2.179-6.145-3.1-.135-.06-.248-.095-.404-.021-2.183 1.015-4.339 2.083-6.418 3.298-.159.093-.237.19-.25.382-.113 1.678-.189 3.357-.184 5.038zm-7.509 11.259l.601-.033c2.358-.045 4.66-.45 6.917-1.12.205-.06.237-.141.201-.32-.072-.348-.14-.696-.199-1.046-.23-1.358-.43-2.721-.556-4.093-.017-.179-.058-.325-.242-.434-2.087-1.239-4.042-2.662-5.909-4.211-.167-.139-.262-.153-.434.001-1.258 1.118-2.472 2.279-3.562 3.562-1.024 1.207-1.868 2.515-2.112 4.124-.12.78-.114 1.532.484 2.156.437.456.931.816 1.525 1.043 1.065.407 2.173.416 3.286.371zm14.669-32.605c-.41-.014-.796.089-1.15.288-.911.51-1.648 1.219-2.195 2.1-1.345 2.167-2.179 4.54-2.75 7.015-.054.233.061.253.215.3 1.876.564 3.727 1.201 5.539 1.949.165.068.296.048.441-.02 1.868-.872 3.773-1.659 5.727-2.318.195-.066.202-.133.16-.307-.224-.893-.47-1.779-.769-2.648-.612-1.781-1.367-3.487-2.624-4.927-.694-.795-1.473-1.419-2.594-1.432zm-7.731 16.56c-1.113.586-5.111 3.476-5.743 4.138.98.961 5.057 3.859 5.658 4.017-.156-2.709-.073-5.411.085-8.155zm15.641 8.054l.114-.036c1.888-1.176 3.694-2.462 5.406-3.884.206-.17.237-.241 0-.415-1.344-.984-2.716-1.924-4.15-2.771l-1.35-.802c.209 2.676.054 5.276-.02 7.908zm-7.123 4.628l.028.04c1.726.789 3.502 1.436 5.311 2.007.134.043.203.008.228-.14l.17-.881c.267-1.386.453-2.782.562-4.245-2.067 1.19-4.198 2.174-6.299 3.219zm6.297-13.874c-.154-1.773-.46-3.464-.805-5.149-.05-.245-.156-.248-.356-.17-.991.383-1.993.742-2.981 1.137-.714.286-1.411.615-2.178.951 2.196.963 4.234 2.079 6.32 3.231zm-14.048 10.78c.204 1.722.419 3.37.765 5.019 1.742-.533 3.438-1.135 5.125-1.898-2.003-1.019-3.925-2.047-5.89-3.121zm5.908-13.988c-1.712-.665-3.357-1.229-5.021-1.742-.235-.073-.234.055-.256.188-.197 1.173-.376 2.349-.476 3.534-.027.319-.119.644-.051 1.004 1.881-1.097 3.798-2.035 5.804-2.984z"/><circle fill="#ED1C24" stroke="#000" stroke-width=".1" stroke-miterlimit="10" cx="35.09" cy="37.654" r="1.473"/><circle fill="#ED1C24" cx="17.525" cy="31.512" r="2.401"/><circle fill="#ED1C24" cx="47.287" cy="23.693" r="2.401"/><circle fill="#ED1C24" cx="40.085" cy="51.386" r="2.401"/><circle fill="#ED1C24" stroke="#000" stroke-width=".1" stroke-miterlimit="10" cx="35.026" cy="38.718" r="1.472"/><circle fill="#ED1C24" stroke="#000" stroke-width=".1" stroke-miterlimit="10" cx="38.035" cy="34.674" r="1.472"/><circle fill="#ED1C24" stroke="#000" stroke-width=".1" stroke-miterlimit="10" cx="31.646" cy="34.797" r="1.472"/><circle fill="#ED1C24" stroke="#000" stroke-width=".1" stroke-miterlimit="10" cx="32.911" cy="32.472" r="1.473"/><circle fill="#ED1C24" stroke="#000" stroke-width=".1" stroke-miterlimit="10" cx="31.702" cy="36.27" r="1.473"/><circle fill="#ED1C24" stroke="#000" stroke-width=".1" stroke-miterlimit="10" cx="32.862" cy="37.917" r="1.472"/><circle fill="#ED1C24" stroke="#000" stroke-width=".1" stroke-miterlimit="10" cx="38.646" cy="36.181" r="1.472"/><circle fill="#ED1C24" stroke="#000" stroke-width=".1" stroke-miterlimit="10" cx="37.189" cy="38.055" r="1.473"/><circle fill="#ED1C24" stroke="#000" stroke-width=".1" stroke-miterlimit="10" cx="32.522" cy="33.782" r="1.472"/><circle fill="#ED1C24" stroke="#000" stroke-width=".1" stroke-miterlimit="10" cx="34.976" cy="31.96" r="1.472"/><circle fill="#ED1C24" stroke="#000" stroke-width=".1" stroke-miterlimit="10" cx="37.446" cy="32.811" r="1.473"/><circle fill="#ED1C24" stroke="#000" stroke-width=".1" stroke-miterlimit="10" cx="36.562" cy="36.481" r="1.472"/><circle fill="#ED1C24" stroke="#000" stroke-width=".1" stroke-miterlimit="10" cx="34.58" cy="34.272" r="1.473"/>circle fill=&quot;#ED1C24&quot; stroke=&quot;#000000&quot; stroke-width=&quot;0.1&quot; stroke-miterlimit=&quot;10&quot; cx=&quot;33.986&quot; cy=&quot;36.181&quot; r=&quot;1.473&quot;/&gt;<circle fill="#ED1C24" stroke="#000" stroke-width=".1" stroke-miterlimit="10" cx="36.882" cy="34.247" r="1.472"/></svg>