<svg xmlns="http://www.w3.org/2000/svg" xmlns:xlink="http://www.w3.org/1999/xlink" width="50" height="159"><defs><svg xmlns="http://www.w3.org/2000/svg" xmlns:xlink="http://www.w3.org/1999/xlink" width="620" height="199"><defs><path fill-rule="evenodd" d="M79.894 187.511c-26.927-5.112-47.798-20.301-58.931-42.887-6.856-13.91-9.063-22.989-9.702-39.921-.778-20.594 1.852-33.854 9.981-50.341 8.093-16.413 18.7-27.494 33.757-35.264 13.523-6.978 28.758-9.763 48-8.775 30.039 1.543 53.287 14.321 67.477 37.088 14.335 23 17.899 59.494 7.955 81.46-1.337 2.954-2.431 5.497-2.431 5.652 0 .155 1.912-.286 4.25-.98s5.938-1.57 8-1.947l3.75-.686v28.045c0 15.425-.163 28.045-.362 28.045-.199 0-4.185-1.792-8.858-3.981-17.656-8.274-31.325-9.086-45.372-2.698-4.45 2.024-11.65 4.616-16 5.761-10.431 2.745-30.876 3.448-41.514 1.429m29.684-59.003c8.704-5.101 12.422-14.215 12.422-30.451 0-17.357-5.519-27.407-16.863-30.705-13.97-4.061-26.401 2.906-30.706 17.21-1.892 6.286-1.859 22.636.059 29.093 2.66 8.957 8.098 14.714 16.503 17.47 4.65 1.525 13.688.252 18.584-2.618m159.922 59.384c-28.82-4.156-48.745-20.549-56.386-46.391-3.583-12.116-4.114-22.154-4.114-77.724v-53.776h61.936l.282 56.75c.309 62.307.045 59.723 6.423 62.75 4.115 1.953 12.648 1.918 16.487-.067 5.876-3.038 5.872-2.993 5.872-63.901v-55.532h62.114l-.35 60.25c-.339 58.43-.416 60.492-2.551 68.25-9.408 34.191-33.939 50.883-74.035 50.378-5.323-.067-12.378-.511-15.678-.987m112.5-88.891v-89h63v178h-63v-89m83 66.06v-22.94l5.215-6.81c14.224-18.573 48.024-60.285 51.705-63.81l4.178-4-30.299-.5-30.299-.5-.266-28.25-.266-28.25h144.032v47.572l-24.073 29.964c-13.24 16.48-27.065 33.001-30.723 36.714l-6.65 6.75h61.446v57h-144v-22.94" id="a"/></defs><use xlink:href="#a"/></svg></defs><use xlink:href="#text" fill="#0fa14a" transform="matrix(0 -.25 .25 0 0 160)"/></svg>