<svg xmlns="http://www.w3.org/2000/svg" width="70.866" height="70.866"><path stroke="#ED1C24" stroke-width="1.7" stroke-miterlimit="10" d="M42.007 32.196c-.753 1.073-2.352 3.159-3.009 4.293-.508.877-1.114 2.307-1.127 2.961-.008.396.058 1.525-.2 1.57-1.271.22-5.585.679-6.018-.071-.409-.708.013-3.958 1.833-6.957l3.427-4.739c.741-1.047 1.343-2.245 1.343-3.341 0-2.346-1.458-4.408-3.751-4.091-3.172.439-3.175 3.232-3.759 5.031-.255.786-5.914 1.077-5.978-.427-.281-6.62 4.366-10.44 9.737-10.44 5.233 0 9.772 3.642 9.772 9.977-.001 2.494-.975 4.388-2.27 6.234zm-10.456 20.329c-.39-.714-.21-4.802-.043-6.173.065-.54 6.263-.707 6.48-.134.524 1.383.348 5.867 0 6.402-.281.432-6.176.382-6.437-.095z" fill="none"/></svg>