<!--<?xml version="1.0" encoding="utf-8"?>-->
<!--<!DOCTYPE svg PUBLIC "-//W3C//DTD SVG 1.1//EN" "http://www.w3.org/Graphics/SVG/1.1/DTD/svg11.dtd">-->
<svg version="1.1" id="cessna-isometric" xmlns="http://www.w3.org/2000/svg" xmlns:xlink="http://www.w3.org/1999/xlink" x="0px" y="0px" width="683.72px"
	 height="526.39px" viewBox="0 0 683.72 526.39" enable-background="new 0 0 683.72 526.39" xml:space="preserve">
	<g>
		<polyline fill="#FFFFFF" stroke="#B6B6B6" stroke-miterlimit="10" points="373.632,259.424 351.901,270.9 442.635,336.549 464.336,324.877 374.017,259.568"/>
		<polygon fill="#FFFFFF" stroke="#B6B6B6" stroke-miterlimit="10" points="474.793,332.42 453.889,344.572 565.959,425.877 586.25,412.252 474.793,332.42"/>
		<path fill="#FFFFFF" stroke="#B6B6B6" stroke-miterlimit="10" d="M527.746,55.598l0.391-0.963l-13.613,5.046l-28.087,71.124 l14.266-6.984c0,0-0.854,0.721,0.081-1.788C501.719,119.522,527.746,55.598,527.746,55.598L527.746,55.598z"/>
		<polygon fill="#FFFFFF" stroke="#B6B6B6" stroke-miterlimit="10" points="244.005,144.444 222.257,150.226 259.897,188.615 280.858,181.886 244.005,144.444"/>
		<polygon fill="#FFFFFF" stroke="#B6B6B6" stroke-miterlimit="10" points="239.148,139.51 218.027,145.779 141.281,68.41 163.474,62.625 239.148,139.51"/>
		<polygon fill="#FFFFFF" stroke="#B6B6B6" stroke-miterlimit="10" points="470.145,102.328 461.969,113.932 415.556,83.805 430.947,77.483 470.145,102.328"/>
		<polygon fill="#FFFFFF" stroke="#B6B6B6" stroke-miterlimit="10" points="514.609,130.811 501.713,137.422 585.464,190.242 599.479,182.517 514.609,130.811"/>
		<g>
			<path fill="#000000" stroke="#B6B6B6" stroke-width="3" stroke-linecap="round" stroke-linejoin="round" stroke-miterlimit="10" d="M248.272,318.262h7.502c0,0,45.954,12.66,51.346,15.942s188.268,157.555,196.474,161.071c8.206,3.518,20.632,5.393,30.01,0c9.379-5.394,26.26-15.006,40.562-29.541c14.302-14.536,25.79-33.996,23.211-41.499c-2.579-7.502-14.771-14.302-23.446-20.397c-8.674-6.096-204.21-147.239-204.21-147.239s0.327-4.425,8.439-9.847c28.996-19.38,113.946-94.955,113.946-94.955l80.184,51.111c0,0,7.971,5.861,15.709,1.172c9.733-5.901,20.396-10.785,20.396-10.785s4.455-2.578,0-5.627c-4.454-3.048-107.613-65.648-107.613-65.648l27.665-68.148c0,0,2.499-7.502-0.783-7.502s-7.657,1.875-7.657,1.875s1.016,2.578-4.534,3.907c-5.632,1.348-6.353-2.032-6.353-2.032s-3.806,0.781-5.525,2.97c-1.721,2.188-33.449,49.235-33.449,49.235l-44.391-28.135c0,0-2.97-1.719-8.128,0.782c-5.158,2.5-18.756,7.658-18.756,7.658s-6.254,4.377-0.158,9.223c6.098,4.845,54.552,34.855,54.552,34.855l-9.223,8.596c0,0-65.024,17.975-80.342,22.352c-15.317,4.376-82.841,24.226-82.841,24.226L163.474,62.625c0,0-2.5-4.688-11.41-5.47c0,0-22.821-2.501-45.329,2.814c-22.507,5.313-37.044,9.065-36.731,15.473c0.312,6.409,4.376,11.098,9.847,17.663c5.47,6.564,116.915,135.828,116.915,135.828s2.5,4.845-1.562,7.658c-4.064,2.813-70.806,41.733-76.12,44.86c-5.314,3.126-7.971,4.219-9.847,6.877c-1.875,2.657-2.032,4.377-2.032,4.377s-26.572-44.078-30.323-44.704c-3.751-0.626-6.095,1.25-4.845,5.001c1.25,3.752,15.943,36.576,20.319,43.297c4.376,6.721,5.158,9.221,7.971,10.629c2.813,1.406,4.221,1.406,4.221,1.406s-8.909,6.722-11.879,12.191c-2.97,5.471-3.909,7.971-2.658,10.316c1.25,2.345,6.721,5.002,13.286,4.533c6.565-0.47,12.036-1.407,12.036-1.407s-0.111,6.874,1.606,11.254c1.155,2.946,18.87,32.042,22.622,37.199c3.751,5.158,7.037,11.058,10.17,9.43c3.479-1.809-0.01-7.554-6.888-19.745c-6.878-12.192-11.563-26.337-16.799-32.511c-2.645-3.12-6.021-7.19-6.021-7.19s9.464,9.3,18.956,13.716c9.695,4.511,29.03,1.134,46.38-4.337C202.707,336.314,248.272,318.262,248.272,318.262L248.272,318.262z"/>
		</g>
		<path fill="none" stroke="#B6B6B6" stroke-width="3" stroke-linecap="round" stroke-linejoin="round" stroke-miterlimit="10" d="M224.748,206.529c-3.032,2.045-6.253,5.29-9.887,9.042c-3.634,3.751-17.584,20.631-18.347,22.272c-0.761,1.641-1.552,4.965-1.758,9.261c-0.164,3.429,0.994,7.82,2.029,8.992c1.036,1.173,2.406,1.598,4.281-0.278s12.114-14.223,17.038-19.147c4.923-4.923,10.238-10.55,13.521-13.521c3.282-2.97,10.238-8.44,10.238-8.44s3.441-2.883,0.628-4.759S228.635,203.905,224.748,206.529L224.748,206.529z M233.5,229.813c0,0-11.781,10.55-16.294,15.884c-4.515,5.334-11.313,13.54-12.017,14.36c-0.703,0.821-2.227,2.287-0.703,3.868c1.524,1.583,11.488,8.5,17.115,11.43c5.627,2.932,17.526,6.917,25.497,6.624c7.972-0.294,8.616-0.821,9.378-1.817c0.762-0.997,7.15-28.252,8.088-31.945c0.938-3.692,2.52-9.261,0.704-12.866c-1.817-3.604-6.39-10.346-9.144-13.745c-2.755-3.399-4.279-4.747-6.858-4.455c-2.579,0.294-4.103,1.7-7.737,5.041C237.896,225.534,235.499,228.001,233.5,229.813L233.5,229.813z M280.45,239.484c-1.638,0.71-3.749,2.798-4.512,6.257c-0.762,3.458-4.914,21.577-5.276,23.754c-0.411,2.462,1.7,6.153,6.682,3.517c9.722-5.146,28.427-15.768,32.354-17.702c3.927-1.935,7.364-2.695,7.209-6.331c-0.645-15.123-0.458-11.637-0.645-15.123 c-0.148-2.801,0.235-9.143-7.445-6.154C302.946,229.989,285.062,237.485,280.45,239.484L280.45,239.484z M323.642,221.873c5.17-1.339,18.765-3.568,20.249-3.803c1.484-0.235,4.923-0.625,4.923,2.579c0,1.875,0,8.598,0,10.512c0,1.914,0.08,3.751-2.93,5.236c-3.01,1.483-16.021,8.323-17.976,9.378c-1.953,1.055-4.963,1.758-4.844-2.657c0.04-1.485-0.822-11.605-1.408-14.967C321.07,224.792,321.094,222.533,323.642,221.873L323.642,221.873z M470.145,102.328l-16.881,24.384l-9.223,8.596c0,0-20.239,12.661-18.91,14.068c1.326,1.407,34.541-7.582,47.905-12.973c13.364-5.392,27.704-11.617,27.666-12.582c-0.04-1.007,0.079-1.799,0.079-1.799s2.891,8.441,2.266,9.613c-0.625,1.172-12.977,7.956-16.881,11.176c-0.908,0.748-2.658,2.891-0.392,4.689c2.268,1.796,6.331,4.298,6.331,4.298M124.807,322.081c0,0,3.15-0.499,2.212-3.624c-0.938-3.126-4.571-8.574-7.15-11.701c-0.769-0.932-3.79-0.062-3.731,0.408 M104.548,308.336c0,0,2.464,0.195,3.911-1.094c1.072-0.956,0.78-3.165,0.78-3.165 M115.333,333.97c0,0,0.041-1.724,2.113-2.196c1.985-0.455,2.576,0.633,2.576,0.633s4.302-2.422,5.161-6.799c0.76-3.865-4.095-11.641-7.662-16.309c-0.469-0.614-0.917-1.175-1.326-1.668c-3.517-4.219-6.957-3.554-6.957-3.554s-0.193-4.456-0.702-6.331c-0.676-2.495-1.524-5.359-1.524-5.359 M280.858,181.886c0,0-38.136,11.878-44.544,15.318c-6.409,3.438-19.07,11.722-27.979,22.977c-8.91,11.254-11.82,15.171-11.82,15.171 M255.774,318.262c0,0-3.987-1.486-2.423-4.611c1.563-3.127,9.38-9.848,25.478-18.757c16.099-8.909,68.774-33.449,76.12-36.731c7.346-3.281,10.473-5.159,11.411-4.533c0.937,0.626,3.36,2.969,3.36,2.969"/>
		<polyline fill="none" stroke="#B6B6B6" stroke-width="5.3124" stroke-miterlimit="10" points="528.137,54.635 514.523,59.681 486.437,130.804"/>
		<path fill="none" stroke="#B6B6B6" stroke-miterlimit="10" d="M148.867,75.941l22.193-5.783 M155.744,82.819l22.193-5.784M162.396,89.696l22.11-5.703 M169.322,96.678l21.976-5.784 M176.074,103.485l22.015-5.692 M182.862,110.329l22.015-5.637M189.685,117.206l21.982-5.615 M196.663,124.24l21.802-5.746 M203.453,131.087l21.801-5.694 M210.399,138.09l21.811-5.835M228.638,156.583l22.193-5.783 M235.242,163.846l22.192-5.783 M241.613,170.566l22.194-5.783 M249.074,177.56l21.647-5.972M255.596,184.266l21.29-6.415 M233.428,228.825c0,0-12.372,11.079-17.11,16.678c-4.739,5.601-11.877,14.218-12.618,15.08c-0.738,0.861-2.338,2.399-0.738,4.062c1.6,1.662,12.063,8.924,17.971,12.001c5.908,3.076,18.403,7.263,26.772,6.954c8.37-0.308,9.048-0.861,9.847-1.907c0.8-1.047,7.509-29.664,8.494-33.542c0.985-3.878,2.646-9.725,0.738-13.51c-1.908-3.785-6.708-10.863-9.601-14.433c-2.892-3.569-4.492-4.984-7.2-4.677c-2.708,0.308-4.308,1.785-8.125,5.292C238.043,224.332,235.525,226.924,233.428,228.825L233.428,228.825z M225.027,205.286c-3.182,2.147-6.564,5.554-10.382,9.492c-3.815,3.939-18.462,21.664-19.263,23.387c-0.8,1.724-1.631,5.215-1.846,9.724c-0.172,3.6,1.044,8.211,2.13,9.442c1.087,1.231,2.526,1.678,4.497-0.292c1.969-1.968,12.718-14.934,17.888-20.104c5.171-5.169,10.75-11.079,14.196-14.196c3.447-3.118,10.75-8.862,10.75-8.862s3.615-3.027,0.661-4.997C240.704,206.91,229.108,202.531,225.027,205.286L225.027,205.286zM279.518,238.719c-1.751,0.759-4.012,2.995-4.827,6.695c-0.816,3.701-4.802,21.274-5.279,23.586c-0.772,3.746,1.836,8.936,7.932,5.594c10.321-5.657,29.268-16.872,33.471-18.942c4.202-2.07,7.372-2.782,7.207-6.672c-0.691-16.18-0.563-12.565-0.762-16.294c-0.16-2.998-0.879-8.909-7.387-6.573C303.527,228.391,284.453,236.579,279.518,238.719L279.518,238.719z M322.841,221.26c5.533-1.47,20.078-3.92,21.666-4.177c1.589-0.257,5.27-0.688,5.27,2.834c0,2.06,0,9.444,0,11.547c0,2.104,0.084,4.122-3.137,5.754c-3.22,1.63-15.675,8.34-17.766,9.5c-2.09,1.16-6.777,2.734-6.65-2.116c0.042-1.632-0.88-12.751-1.507-16.443C320.09,224.467,320.116,221.986,322.841,221.26L322.841,221.26z M360.983,277.472l22.047-11.265 M370.111,283.777l22.048-11.266 M401.069,279.154l-22.049,11.266c0,0-33.361,16.742-47.659,24.21c-3.228,1.688-5.484,2.901-6.165,3.344c-3.697,2.397-13.857,8.494-15.419,11.464c-1.563,2.969-2.276,3.289-1.686,5.475M388.634,297.152l22.047-11.266 M397.772,304.021l22.048-11.267 M407.072,310.585l22.049-11.266 M415.729,317.119l22.05-11.266M424.875,323.606l22.049-11.267 M434.018,330.248l22.049-11.266 M463.305,351.313l22.048-11.267 M473.617,358.891l22.048-11.266M483.855,366.314l22.047-11.267 M494.879,373.975l20.748-12.104 M504.732,381.408l20.748-12.103 M515.105,388.676l20.199-12.619M525.206,396.583l20.2-12.618 M535.976,403.952l20.2-12.619 M546.076,411.307l20.2-12.618 M556.543,418.678l19.42-12.619M590.639,415.685c0,0-77.667,52.159-83.06,57.318c-5.394,5.156-8.44,10.081-8.909,12.659c-0.469,2.579,0,6.195,0,6.195M469.312,328.466c0,0-68.645,36.083-76.146,40.84s-14.479,9.172-17.058,12.142s-3.517,5.158-3.022,7.229 M518.945,464.597L330.562,315.049 M74.037,85.783c0,0-0.434-3.559,5.663-5.855c6.096-2.297,36.107-9.016,46.735-11.518c10.628-2.501,34.913-8.047,34.913-8.047 M149.917,174.574c0,0,0.119-4.462,9.81-7.953c9.691-3.493,29.067-9.46,43.726-13.967c15.337-4.714,38.16-10.641,38.16-10.641 M94.33,75.941l121.587,136.052 M175.359,247.917c7.971-0.856,13.754,1.489,16.568,6.334s7.502,12.605,15.317,18.26c7.815,5.654,12.817,9.25,18.132,20.504c5.314,11.254,2.25,30.327,2.062,33.373 M115.314,283.617c0,0,5.807-2.476,8.777,0.648c2.969,3.123,28.291,26.887,31.729,33.996c3.439,7.109,4.221,17.268,3.908,22.27s0.062,7.105,0.062,7.105 M155.235,317.217l68.798-27.172 M121.665,282.902l57.606-35.142 M528.137,54.635l-13.613,5.046l-10.457,3.879l-40.594,76.26 M486.437,130.804l28.087-71.124 M500.711,69.862l25.377-10.182 M497.688,75.549l26.333-10.776M494.527,81.479l27.231-11.134 M491.817,86.82l27.081-11.125 M488.777,92.28l28.857-11.775 M485.984,97.526l29.597-11.966M482.97,103.056l30.613-12.574 M480.098,108.586l31.623-12.901 M477.331,113.783l32.065-12.987 M474.466,119.164l33.231-13.437M471.604,124.546l33.688-13.639 M468.738,129.924l34.606-14.223 M465.865,135.32l35.695-14.862 M420.597,86.82l15.63-6.315M425.687,90.482l15.63-6.316 M430.947,93.641l15.629-6.316 M436.227,96.798l15.63-6.315 M440.494,99.926l15.629-6.315M445.949,103.542l15.631-6.315 M451.856,106.7l15.63-6.316 M456.877,110.447l10.609-4.287 M101.993,307.672c0,0,3.307-0.554,4.638-1.461c1.759-1.195,2.59-2.515,2.59-2.515 M115.366,335.877c0,0,0.613-1.438,2.283-2.141c1.671-0.705,3.191-0.345,3.191-0.345 M124.794,326.953c0.471-1.469-3.079-7.168-6.137-12.014c-3.947-6.25-6.131-9.297-9.382-10.51 M228.487,201.989c0,0,10.2-3.535,22.365,8.486c8.991,8.887,18.577,16.896,19.761,25.961c1.182,9.064-0.993,10.381-2.952,20.664c-1.961,10.283-6.962,25.093-6.65,28.786c0.312,3.692,0.468,11.266,0.468,11.266l5.27,4.984 M228.139,304.021l126.337-66.334 M276.886,183.135c0,0,6.005-1.806,9.757,1.13s22.941,18.305,28.037,29.018c1.286,2.701,3.347,7.093,3.928,11.489c0.985,7.469,1.024,7.141,1.208,31.114 M311.946,172.759c0,0,5.599-1.267,8.436,0.53c2.837,1.798,15.811,10.864,21.515,18.366c5.705,7.502,9.846,15.317,10.707,18.912c0.211,0.888,0.477,3.95,0.755,8.062c0.849,12.554,1.823,34.881,1.823,34.881l2.023,3.629 M353.359,218.629c0,0,28.083-14.548,48.638-27.365c20.554-12.817,73.54-47.36,73.54-47.36l14.472-9.643 M487.573,130.804c0,0,1.875,1.612,2.501,3.644c0.625,2.031,0.773,5.112,0.773,5.112 M516.254,146.653l12.883-6.923 M508.934,142.243l12.882-6.923 M522.695,150.874l13.467-7.361 M530.383,155.259l12.883-6.922 M537.216,159.581l13.38-7.291 M544.297,163.781l13.379-7.291 M550.986,168.175l13.38-7.291 M558.268,172.734l13.379-7.291 M565.33,177.049l13.379-7.291 M572.285,181.347l13.379-7.291 M578.975,185.795l13.802-7.636 M496.816,62.917c0,0-0.373,2.046,2.322,1.855c2.696-0.192,4.928-1.213,4.928-1.213 M351.699,161.132c0,0,5.985-0.503,15.324,8.72c7.046,6.956,14.731,14.457,16.373,23.629c1.328,7.423,2.148,23.613,2.267,29.709c0.117,6.096,0.373,12.544-0.705,15.475c-1.251,3.399-4.326,6.395-4.326,6.395 M355.183,253.511c0,0,36.34-24.187,47.047-32.393c10.707-8.207,47.829-36.576,57.91-45.485c10.082-8.909,29.071-25.692,29.071-25.692"/>
		<g display="none">
				<path id="isometric-text-rudder" fill="#FFFFFF" stroke="#B6B6B6" stroke-width="0.5" stroke-miterlimit="10" d="M577.17,92.086l-1.766-3.392c0.862-0.238,1.529-0.938,1.529-2.035c0-1.304-0.927-2.241-2.38-2.241h-2.973v7.668h1.163v-3.231h1.455l1.615,3.231H577.17L577.17,92.086z M575.771,86.669c0,0.754-0.528,1.195-1.303,1.195h-1.724v-2.401h1.724C575.242,85.463,575.771,85.916,575.771,86.669L575.771,86.669z M584.235,89.501v-5.083h-1.163v5.03c0,1.022-0.637,1.658-1.594,1.658c-0.959,0-1.584-0.636-1.584-1.658v-5.03h-1.162v5.083c0,1.583,1.185,2.649,2.746,2.649S584.235,91.085,584.235,89.501L584.235,89.501z M591.784,88.199c0-1.109,0.053-2.229-0.775-3.058c-0.485-0.484-1.184-0.722-1.981-0.722h-2.693v7.668h2.693c0.798,0,1.496-0.237,1.981-0.722C591.837,90.535,591.784,89.308,591.784,88.199L591.784,88.199z M590.621,88.199c0,1.055-0.011,1.885-0.41,2.326c-0.323,0.355-0.753,0.516-1.303,0.516h-1.41v-5.578h1.41c0.55,0,0.979,0.162,1.303,0.517C590.61,86.422,590.621,87.143,590.621,88.199L590.621,88.199z M599.17,88.199c0-1.109,0.055-2.229-0.774-3.058c-0.483-0.484-1.186-0.722-1.981-0.722h-2.691v7.668h2.691c0.796,0,1.498-0.237,1.981-0.722C599.225,90.535,599.17,89.308,599.17,88.199L599.17,88.199z M598.009,88.199c0,1.055-0.013,1.885-0.41,2.326c-0.322,0.355-0.753,0.516-1.303,0.516h-1.412v-5.578h1.412c0.55,0,0.98,0.162,1.303,0.517C597.996,86.422,598.009,87.143,598.009,88.199L598.009,88.199z M606.009,92.086v-1.045h-3.736v-2.303h3.188v-1.034h-3.188v-2.24h3.736v-1.045h-4.899v7.668H606.009L606.009,92.086z M613.405,92.086l-1.765-3.392c0.861-0.238,1.528-0.938,1.528-2.035c0-1.304-0.925-2.241-2.38-2.241h-2.973v7.668h1.164v-3.231h1.454l1.615,3.231H613.405L613.405,92.086z M612.006,86.669c0,0.754-0.528,1.195-1.303,1.195h-1.723v-2.401h1.723C611.478,85.463,612.006,85.916,612.006,86.669L612.006,86.669z"/>
				<path id="isometric-text-elevators" fill="#FFFFFF" stroke="#B6B6B6" stroke-width="0.5" stroke-miterlimit="10" d="M364.636,49.067v-1.045h-3.736v-2.304h3.188v-1.033h-3.188v-2.24h3.736V41.4h-4.9v7.667H364.636L364.636,49.067z M371.302,49.067v-1.045h-3.695V41.4h-1.161v7.667H371.302L371.302,49.067z M377.739,49.067v-1.045h-3.734v-2.304h3.186v-1.033h-3.186v-2.24h3.734V41.4h-4.898v7.667H377.739L377.739,49.067z M384.569,41.4h-1.229l-1.766,5.578l-1.766-5.578h-1.207l2.521,7.667h0.904L384.569,41.4L384.569,41.4zM391.104,49.067l-2.812-7.667h-0.937l-2.81,7.667h1.237l0.527-1.541h3.026l0.527,1.541H391.104L391.104,49.067z M389.013,46.536h-2.357l1.195-3.402L389.013,46.536L389.013,46.536z M396.466,42.444V41.4h-5.385v1.044h2.111v6.623h1.161v-6.623H396.466L396.466,42.444z M403.024,45.233c0-1.475,0.02-2.326-0.732-3.08c-0.529-0.528-1.207-0.818-2.026-0.818c-0.817,0-1.487,0.291-2.015,0.818c-0.753,0.754-0.74,1.605-0.74,3.08s-0.013,2.326,0.74,3.08c0.527,0.527,1.197,0.818,2.015,0.818c0.819,0,1.497-0.292,2.026-0.818C403.044,47.56,403.024,46.708,403.024,45.233L403.024,45.233z M401.86,45.233c0,1.54-0.076,1.97-0.453,2.379c-0.27,0.291-0.689,0.475-1.142,0.475s-0.872-0.184-1.14-0.475c-0.379-0.409-0.454-0.84-0.454-2.379c0-1.541,0.075-1.971,0.454-2.38c0.268-0.291,0.688-0.474,1.14-0.474s0.872,0.183,1.142,0.474C401.784,43.262,401.86,43.693,401.86,45.233L401.86,45.233z M410.552,49.067l-1.768-3.393c0.86-0.237,1.528-0.937,1.528-2.035c0-1.303-0.925-2.239-2.38-2.239h-2.971v7.667h1.162v-3.231h1.454l1.614,3.231H410.552L410.552,49.067z M409.151,43.65c0,0.754-0.528,1.195-1.306,1.195h-1.722v-2.401h1.722C408.623,42.444,409.151,42.896,409.151,43.65L409.151,43.65z M417.022,46.881c0-0.657-0.205-1.207-0.625-1.572c-0.323-0.291-0.723-0.463-1.432-0.571l-0.874-0.129c-0.354-0.054-0.667-0.183-0.86-0.355c-0.204-0.183-0.291-0.431-0.291-0.711c0-0.678,0.494-1.195,1.4-1.195c0.646,0,1.195,0.14,1.668,0.593l0.743-0.733c-0.656-0.613-1.368-0.872-2.379-0.872c-1.595,0-2.563,0.916-2.563,2.251c0,0.624,0.184,1.108,0.56,1.464c0.335,0.312,0.83,0.528,1.454,0.614l0.904,0.129c0.453,0.065,0.646,0.14,0.84,0.323c0.205,0.183,0.303,0.463,0.303,0.796c0,0.743-0.581,1.175-1.584,1.175c-0.785,0-1.4-0.173-1.959-0.733l-0.775,0.765c0.732,0.743,1.561,1.013,2.713,1.013C415.87,49.132,417.022,48.292,417.022,46.881L417.022,46.881z"/>
				<path id="isometric-text-ailerons" fill="#FFFFFF" stroke="#B6B6B6" stroke-width="0.5" stroke-miterlimit="10" d="M504.107,296.864l-2.811-7.667h-0.938l-2.811,7.667h1.238l0.528-1.54h3.026l0.527,1.54H504.107L504.107,296.864z M502.02,294.334h-2.359l1.195-3.404L502.02,294.334L502.02,294.334z M506.572,296.864v-7.667h-1.162v7.667H506.572L506.572,296.864z M513.648,296.864v-1.045h-3.695v-6.622h-1.162v7.667H513.648L513.648,296.864z M520.086,296.864v-1.045h-3.735v-2.304h3.187v-1.035h-3.187v-2.238h3.735v-1.045h-4.898v7.667H520.086L520.086,296.864z M527.485,296.864l-1.766-3.392c0.861-0.238,1.528-0.938,1.528-2.035c0-1.303-0.927-2.24-2.379-2.24h-2.973v7.667h1.163v-3.231h1.452l1.617,3.231H527.485L527.485,296.864z M526.084,291.448c0,0.754-0.527,1.194-1.302,1.194h-1.723v-2.4h1.723C525.557,290.242,526.084,290.694,526.084,291.448L526.084,291.448z M534.398,293.031c0-1.476,0.023-2.326-0.73-3.08c-0.529-0.527-1.209-0.819-2.025-0.819c-0.818,0-1.486,0.292-2.014,0.819c-0.755,0.754-0.744,1.604-0.744,3.0c0,1.475-0.011,2.326,0.744,3.079c0.527,0.528,1.195,0.819,2.014,0.819c0.816,0,1.496-0.291,2.025-0.819C534.422,295.357,534.398,294.506,534.398,293.031L534.398,293.031z M533.235,293.031c0,1.54-0.075,1.971-0.452,2.381c-0.269,0.289-0.689,0.473-1.141,0.473s-0.873-0.184-1.143-0.473c-0.376-0.41-0.451-0.841-0.451-2.381c0-1.541,0.075-1.973,0.451-2.381c0.27-0.289,0.691-0.473,1.143-0.473s0.872,0.184,1.141,0.473C533.16,291.059,533.235,291.49,533.235,293.031L533.235,293.031z M542.109,296.864v-7.667h-1.163v5.385l-3.544-5.385h-1.065v7.667h1.163v-5.396l3.543,5.396H542.109L542.109,296.864z M549.119,294.679c0-0.657-0.205-1.206-0.625-1.573c-0.323-0.289-0.722-0.463-1.432-0.57l-0.871-0.129c-0.357-0.055-0.67-0.184-0.862-0.356c-0.205-0.182-0.292-0.431-0.292-0.71c0-0.678,0.497-1.195,1.4-1.195c0.646,0,1.195,0.141,1.669,0.592l0.742-0.732c-0.656-0.611-1.366-0.872-2.379-0.872c-1.595,0-2.563,0.917-2.563,2.252c0,0.624,0.184,1.109,0.561,1.464c0.334,0.312,0.829,0.528,1.454,0.614l0.905,0.129c0.451,0.063,0.646,0.14,0.838,0.323c0.205,0.182,0.302,0.463,0.302,0.797c0,0.742-0.58,1.174-1.583,1.174c-0.785,0-1.4-0.174-1.959-0.733l-0.775,0.765c0.732,0.743,1.562,1.014,2.715,1.014C547.966,296.93,549.119,296.089,549.119,294.679L549.119,294.679z"/>
				<path id="isometric-text-flaps" fill="#FFFFFF" stroke="#B6B6B6" stroke-width="0.5" stroke-miterlimit="10" d="M290.349,123.386v-1.043h-4.9v7.667h1.163v-3.241h3.187v-1.045h-3.187v-2.338H290.349L290.349,123.386z M296.821,130.009v-1.045h-3.695v-6.622h-1.161v7.667H296.821L296.821,130.009z M304.002,130.009l-2.811-7.667h-0.937l-2.811,7.667h1.239l0.528-1.541h3.025l0.528,1.541H304.002L304.002,130.009z M301.914,127.478h-2.358l1.195-3.402L301.914,127.478L301.914,127.478z M310.667,124.667c0-1.334-0.958-2.325-2.455-2.325h-2.907v7.667h1.163v-3.015h1.744C309.709,126.995,310.667,126.004,310.667,124.667L310.667,124.667z M309.504,124.667c0,0.809-0.549,1.271-1.355,1.271h-1.68v-2.553h1.68C308.956,123.386,309.504,123.861,309.504,124.667L309.504,124.667z M317.086,127.822c0-0.657-0.205-1.205-0.625-1.571c-0.323-0.292-0.722-0.463-1.432-0.571l-0.872-0.13c-0.357-0.053-0.669-0.182-0.862-0.355c-0.205-0.184-0.292-0.431-0.292-0.712c0-0.678,0.495-1.195,1.4-1.195c0.646,0,1.196,0.141,1.669,0.594l0.743-0.733c-0.657-0.615-1.366-0.872-2.379-0.872c-1.594,0-2.564,0.914-2.564,2.25c0,0.625,0.184,1.108,0.562,1.463c0.333,0.313,0.828,0.528,1.453,0.615l0.904,0.128c0.454,0.066,0.647,0.141,0.84,0.323c0.206,0.184,0.302,0.464,0.302,0.799c0,0.742-0.581,1.174-1.583,1.174c-0.786,0-1.4-0.173-1.959-0.733l-0.775,0.765c0.733,0.742,1.561,1.011,2.713,1.011C315.934,130.073,317.086,129.234,317.086,127.822L317.086,127.822z"/>
				<path id="isometric-text-lines" fill="none" stroke="#B6B6B6" stroke-width="2" stroke-linecap="round" stroke-linejoin="round" d="M564.604,88.137h-48.821M444.561,45.205h-18.654 M444.561,45.205v39.926 M271.295,126v44.405 M483.219,292.623v44.406 M515.782,88.137l7.695-4.126M444.561,85.131l-4.126-7.694 M271.295,170.405l-4.126-7.696 M483.219,337.029l-4.125-7.695 M515.802,88.078l7.695,4.125M444.5,85.112l4.126-7.695 M271.237,170.387l4.126-7.695 M483.16,337.01l4.125-7.695 M281.375,126h-10.08 M493.297,292.623h-10.078"/>
		</g>
	</g>
</svg>
