<?xml version="1.0" encoding="utf-8"?>
<!DOCTYPE svg PUBLIC "-//W3C//DTD SVG 1.1//EN" "http://www.w3.org/Graphics/SVG/1.1/DTD/svg11.dtd">
<svg version="1.1" id="icon-history" xmlns="http://www.w3.org/2000/svg" xmlns:xlink="http://www.w3.org/1999/xlink" x="0px" y="0px" width="70.866px" height="70.866px" viewBox="0 0 70.866 70.866" enable-background="new 0 0 70.866 70.866" xml:space="preserve">
<g>
	<path fill-rule="evenodd" clip-rule="evenodd" fill="none" stroke="#ED1C24" stroke-width="1.8" stroke-miterlimit="10" d="
		M16.495,23.196l-1.763,24.689c0,0,15.71-1.783,16.479-1.665s2.341,0.952,3.919,1.064s3.649-1.182,3.649-1.182l16.749,1.687
		l-1.829-24.797c0,0-2.693,0.026-3.161-0.351s-0.832-1.267-1.625-1.939s-7.694-1.659-9.999-0.714s-3.116,1.171-3.765,2.501
		s0.668-3.029-7.134-2.715s-5.852,0.727-6.111,0.824s-1.459,1.125-2.221,2.271C19.105,23.738,17.512,22.938,16.495,23.196z"/>
	<path fill-rule="evenodd" clip-rule="evenodd" fill="none" stroke="#ED1C24" stroke-miterlimit="10" d="M19.564,23.833l-0.93,0.78
		c0,0-1.477,14.298-0.48,20.672c0,0,13.073-1.788,14.239-1.607s1.218,0.228,2.265,0.676c0.131,0.056,0.258,0.091,0.38,0.109
		c0.856,0.132,1.479-0.545,1.536-0.576c0.065-0.035,1.254-1.065,1.759-0.702s13.964,1.099,14.329,2.008s-0.731-19.822-1.041-20.488
		s-3.32-2.881-3.323-3.258s-6.444-1.892-7.981-0.828c0,0-4.105,0.354-5.187,3.488c0,0-1.828-3.214-2.618-2.985
		s-0.414-1.271-10.051,0C22.46,21.123,22.166,20.779,19.564,23.833z"/>
	<path fill-rule="evenodd" clip-rule="evenodd" fill="none" stroke="#ED1C24" stroke-width="1.2" stroke-miterlimit="10" d="
		M35.129,43.915c0,0,0.162-3.013-3.623-3.961s-9.104,0.118-10.642,0.414c0,0,0.59-8.691,1.063-17.914c0,0,0.56-1.28,1.232-1.419
		s6.142-1.24,8.363-0.146s2.091,0.824,2.842,2c0,0,0.394,0.606,0.764,1.93V43.915z"/>
	<path fill-rule="evenodd" clip-rule="evenodd" fill="none" stroke="#ED1C24" stroke-width="1.2" stroke-miterlimit="10" d="
		M35.149,24.522c0,0,0.668-1.941,2.162-2.931S42.183,19.88,47.229,21c0,0,0.529,0.56,0.632,0.816s0.969,17.25,1.205,18.551
		c0,0-2.134-1.52-10.323-1.062c0,0-3.548,0.96-3.471,4.609"/>
	<line fill-rule="evenodd" clip-rule="evenodd" fill="none" stroke="#ED1C24" stroke-width="0.8" stroke-miterlimit="10" x1="20.865" y1="40.367" x2="18.154" y2="45.286"/>
	<line fill-rule="evenodd" clip-rule="evenodd" fill="none" stroke="#ED1C24" stroke-width="0.8" stroke-miterlimit="10" x1="49.066" y1="40.367" x2="52.73" y2="44.806"/>
</g>
</svg>
