<?xml version="1.0" encoding="utf-8"?>
<!DOCTYPE svg PUBLIC "-//W3C//DTD SVG 1.1//EN" "http://www.w3.org/Graphics/SVG/1.1/DTD/svg11.dtd">
<svg xmlns="http://www.w3.org/2000/svg" xmlns:xlink="http://www.w3.org/1999/xlink" version="1.1" width="50" height="159">
	<defs>
		<svg id="text" xmlns="http://www.w3.org/2000/svg" xmlns:xlink="http://www.w3.org/1999/xlink" version="1.1" width="620" height="199">
			<path fill-rule="evenodd" d="M 79.894345 187.510533 C 52.967680 182.398626 32.095858 167.209220 20.963629 144.623880C 14.107197 130.713383 11.900775 121.634772 11.261536 104.703361C 10.484026 84.109580 13.113075 70.849824 21.242775 54.362421C 29.336033 37.948925 39.943099 26.868414 55.000000 19.098451C 68.522507 12.120296 83.757933 9.335014 103.000000 10.323276C 133.038903 11.866057 156.286918 24.643955 170.476919 47.410879C 184.812383 70.411190 188.375982 106.904754 178.431489 128.870843C 177.094170 131.824807 176.000000 134.368266 176.000000 134.522975C 176.000000 134.677684 177.912500 134.236794 180.250000 133.543220C 182.587500 132.849646 186.187500 131.973296 188.250000 131.595775L 192.000000 130.909374 L 192.000000 158.954687 C 192.000000 174.379609 191.837291 187.000000 191.638425 187.000000C 191.439559 187.000000 187.453648 185.208387 182.780847 183.018639C 165.125318 174.744979 151.455729 173.932185 137.408432 180.320796C 132.958070 182.344789 125.758070 184.937224 121.408432 186.081764C 110.977382 188.826533 90.532654 189.530168 79.894345 187.510533M 109.577988 128.507164 C 118.281951 123.406302 122.000000 114.291958 122.000000 98.056114C 122.000000 80.699321 116.480529 70.649103 105.137395 67.351564C 91.167539 63.290417 78.736167 70.258026 74.431341 84.561877C 72.539447 90.848164 72.572491 107.197420 74.490143 113.654853C 77.150165 122.612118 82.588258 128.368830 90.993526 131.125174C 95.643512 132.650046 104.681142 131.376907 109.577988 128.507164M 269.500000 187.890854 C 240.680148 183.734732 220.754931 167.341542 213.113915 141.500000C 209.531268 129.383665 209.000000 119.346466 209.000000 63.776234L 209.000000 10.000000 L 239.968443 10.000000 L 270.936885 10.000000 L 271.218443 66.750000 C 271.527571 129.057122 271.263085 126.473366 277.641858 129.500292C 281.757286 131.453190 290.289710 131.418665 294.128438 129.433582C 300.004223 126.395096 300.000000 126.441053 300.000000 65.532119L 300.000000 10.000000 L 331.056923 10.000000 L 362.113847 10.000000 L 361.764113 70.250000 C 361.424947 128.679510 361.347865 130.741725 359.213034 138.500000C 349.804659 172.691366 325.274271 189.383291 285.177641 188.878058C 279.854938 188.810990 272.800000 188.366748 269.500000 187.890854M 382.000000 99.000000 L 382.000000 10.000000 L 413.500000 10.000000 L 445.000000 10.000000 L 445.000000 99.000000 L 445.000000 188.000000 L 413.500000 188.000000 L 382.000000 188.000000 L 382.000000 99.000000 M 465.000000 165.059771 L 465.000000 142.119542 L 470.215328 135.309771 C 484.439476 116.736982 518.239257 75.024614 521.920766 71.500000L 526.098822 67.500000 L 495.799411 67.000000 L 465.500000 66.500000 L 465.234427 38.250000 L 464.968853 10.000000 L 536.984427 10.000000 L 609.000000 10.000000 L 609.000000 33.786104 L 609.000000 57.572207 L 584.927175 87.536104 C 571.687121 104.016247 557.861690 120.537500 554.203995 124.250000L 547.553639 131.000000 L 578.276820 131.000000 L 609.000000 131.000000 L 609.000000 159.500000 L 609.000000 188.000000 L 537.000000 188.000000 L 465.000000 188.000000 L 465.000000 165.059771 " id="text-path-bf74efb4d62d407439bd3dd1f7d1f920"></path>
			<rect fill="transparent" x="0" y="0" width="620" height="199" />
		</svg>
	</defs>
	<g fill="#0fa14a" transform="translate(0,160) rotate(270) scale(0.25)">
		<use xlink:href="#text"></use>
	</g>
</svg>
