<svg version="1.1" id="loading" xmlns="http://www.w3.org/2000/svg" xmlns:xlink="http://www.w3.org/1999/xlink" x="0px" y="0px" width="4053.405px" height="2799.078px" viewBox="-1133.315 0 4053.405 2799.078" enable-background="new -1133.315 0 4053.405 2799.078" xml:space="preserve">
<g fill="#efefef">
	<g>
		<rect x="245.926" y="1482.44" width="21.128" height="21.128"/>
		<path d="M214.147,1517.321c-0.227,10.729-2.772,20.726-7.403,27.201c-10.637,14.619-32.152,19.61-58.292,19.61c-27.535,0-48.59-4.991-58.766-19.431c-4.631-6.475-6.943-16.464-6.943-27.381v-66.444c0-9.81-1.39-10.357-19.204-11.1v-6.475h70.333v6.475c-17.813,0.742-19.203,1.29-19.203,11.1v66.81c0,18.689,6.481,38.682,33.783,38.682c27.756,0,33.771-19.805,33.771-38.682v-66.81c0-9.81-1.39-10.357-19.204-11.1v-6.475h70.332v6.475c-17.813,0.742-19.203,1.29-19.203,11.1V1517.321z"/>
		<path d="M385.456,1467.534c-5.553-20.721-18.736-29.239-34.473-29.239c-16.43,0-26.6,8.332-26.6,20.546c0,13.512,17.119,20.166,32.152,24.977l6.936,2.226c21.75,7.035,40.26,17.393,40.26,38.68c0,19.979-14.574,39.229-59.223,39.41c-15.502,0-37.018-2.954-48.349-11.286l-3.015-31.825h8.1c7.863,22.204,24.287,35.347,43.264,35.347c17.346,0,28.686-7.59,28.686-22.023c0-13.323-11.566-21.101-27.535-26.279l-5.086-1.663c-21.977-6.856-45.108-17.4-45.108-38.868c0-21.281,18.268-37.011,56.214-37.011c14.111,0,30.996,2.592,41.643,8.139v28.872H385.456z"/>
		<path d="M482.228,1554.885c13.418-0.374,15.736-2.038,19.893-10.73c6.48-13.323,14.807-33.316,22.676-51.262l25.914-59.59h24.748l46.959,111.96c3.475,8.513,6.256,9.248,18.744,9.622v6.48h-68.014v-6.48l12.26-0.741c5.781-0.368,6.709-2.773,4.857-7.404l-13.416-32.386h-47.428c-4.396,11.846-9.02,22.397-12.027,32.754c-1.389,4.631-1.162,6.668,4.625,7.036l13.189,0.741v6.48h-52.98V1554.885z M573.608,1506.215l-19.893-49.779h-0.695c-2.545,5.92-17.352,43.11-20.125,49.779H573.608z"/>
		<path d="M718.437,1543.779c0,9.81,1.389,10.364,19.203,11.105v6.48h-70.332v-6.48c17.812-0.741,19.203-1.296,19.203-11.105v-92.902c0-9.81-1.391-10.357-19.203-11.1v-6.475h70.332v6.475c-17.814,0.742-19.203,1.29-19.203,11.1V1543.779z"/>
		<path d="M991.021,1500.475c-6.248-18.875-12.488-37.01-17.588-51.075c-3-8.145-4.852-9.066-17.111-9.622v-6.475h63.383v6.475l-11.098,0.929c-4.863,0.361-5.787,2.031-4.396,7.217c3.467,10.356,24.053,75.129,28.223,86.609h0.463l31.229-98.276h22.672c4.396,12.215,28.691,85.875,33.543,98.276h0.93l14.58-45.717c6.699-21.095,10.635-35.347,11.791-40.711c0.924-4.258,0.461-6.85-4.623-7.218l-13.65-1.109v-6.475h52.973v6.475c-13.184,0.742-15.494,1.664-19.197,11.1c-3.24,8.15-9.486,25.177-16.43,45.529l-21.977,64.959h-25.211c-4.168-12.033-27.068-79.579-32.16-92.354h-0.467l-30.535,92.354h-25.217L991.021,1500.475z"/>
		<path d="M1184.798,1554.885c13.424-0.374,15.736-2.038,19.898-10.73c6.48-13.323,14.807-33.316,22.67-51.262l25.914-59.59h24.756l46.967,111.96c3.467,8.513,6.24,9.248,18.734,9.622v6.48h-68.02v-6.48l12.268-0.741c5.785-0.368,6.709-2.773,4.857-7.404l-13.424-32.386h-47.422c-4.395,11.846-9.025,22.397-12.025,32.754c-1.396,4.631-1.156,6.668,4.623,7.036l13.184,0.741v6.48h-52.98V1554.885z M1276.185,1506.215l-19.898-49.779h-0.695c-2.545,5.92-17.346,43.11-20.125,49.779H1276.185z"/>
		<path d="M1383.882,1554.885c21.516-0.741,22.912-1.482,22.912-11.292v-26.835c0-4.249-1.623-8.138-4.17-12.026c-4.162-6.475-30.535-48.115-35.166-54.965c-5.318-8.138-7.857-9.434-19.891-9.989v-6.475h68.24v6.475l-12.723,1.109c-4.623,0.368-4.85,2.773-3.006,5.927l31.004,52.372h0.461c10.41-17.586,24.061-39.423,29.846-51.451c2.08-4.442,1.15-6.667-3.24-7.028l-12.033-0.929v-6.475h53.902v6.475c-13.645,0.929-16.885,2.406-22.898,10.731c-9.488,13.143-23.365,34.418-34.471,52.559c-2.547,4.069-3.936,7.397-3.936,12.214v28.312c0,9.81,1.623,10.551,23.131,11.292v6.48h-77.963V1554.885z"/>
		<path d="M1612.579,1467.534c-5.551-20.721-18.736-29.239-34.471-29.239c-16.424,0-26.6,8.332-26.6,20.546c0,13.512,17.119,20.166,32.152,24.977l6.941,2.226c21.75,7.035,40.252,17.393,40.252,38.68c0,19.979-14.572,39.229-59.221,39.41c-15.502,0-37.01-2.954-48.35-11.286l-3.006-31.825h8.092c7.863,22.204,24.295,35.347,43.264,35.347c17.352,0,28.686-7.59,28.686-22.023c0-13.323-11.568-21.101-27.529-26.279l-5.092-1.663c-21.977-6.856-45.109-17.4-45.109-38.868c0-21.281,18.275-37.011,56.215-37.011c14.111,0,31.004,2.592,41.641,8.139v28.872H1612.579z"/>
		<path d="M944.923,1552.104c-4.746-2.051-8.555-3.701-21.938-14.793c-11.881-9.983-24.322-24.28-40.652-41.334c17.969-4.162,30.328-15.782,30.328-30.294c0-17.949-13.182-32.381-54.596-32.381h-76.58v6.475c17.82,0.742,19.209,1.29,19.209,11.1v92.902c0,9.81-1.389,10.364-19.209,11.105v6.48h70.332v-6.48c-17.814-0.741-19.197-1.296-19.197-11.105v-41.82l15.609-0.048c1.67,0,3.201,0.141,4.396,1.283c3.107,2.874,14.111,15.883,23.674,26.407c13.396,14.726,22.484,23.72,32.762,28.116c6.219,2.681,12.201,3.635,25.598,3.635h24.389v-6.026C957.136,1555.326,950.622,1554.578,944.923,1552.104z M846.499,1494.188H832.62v-45.156c0-5.921,1.852-7.965,15.502-7.965c16.191,0,30.764,6.106,30.764,26.099C878.886,1484.004,869.632,1494.188,846.499,1494.188z"/>
	</g>
	<g>
		<rect x="703.47" y="940.521" width="443.723" height="39.528"/>
		<rect x="703.47" y="861.609" width="443.723" height="39.528"/>
		<rect x="545.397" y="1019.594" width="601.795" height="39.535"/>
		<rect x="545.397" y="1098.666" width="601.795" height="39.536"/>
		<rect x="545.397" y="1177.744" width="601.795" height="39.536"/>
		<rect x="545.351" y="861.321" width="118.508" height="118.736"/>
	</g>
</g>
</svg>
